<svg xmlns="http://www.w3.org/2000/svg" xmlns:xlink="http://www.w3.org/1999/xlink" width="537" zoomAndPan="magnify" viewBox="0 0 402.75 477.749986" height="637" preserveAspectRatio="xMidYMid meet" version="1.0"><defs><g/><clipPath id="f09dffcf81"><path d="M 348.902344 283.433594 L 402.121094 283.433594 L 402.121094 336.652344 L 348.902344 336.652344 Z M 348.902344 283.433594 " clip-rule="nonzero"/></clipPath><clipPath id="d1733d1183"><rect x="0" width="295" y="0" height="321"/></clipPath></defs><g clip-path="url(#f09dffcf81)"><path fill="#1d1d1b" d="M 375.511719 336.652344 C 375.085938 336.652344 374.730469 336.324219 374.695312 335.902344 C 372.878906 313.847656 371.707031 312.675781 349.652344 310.859375 C 349.230469 310.824219 348.902344 310.46875 348.902344 310.042969 C 348.902344 309.617188 349.230469 309.261719 349.652344 309.226562 C 371.707031 307.410156 372.878906 306.238281 374.695312 284.183594 C 374.730469 283.761719 375.085938 283.433594 375.511719 283.433594 C 375.9375 283.433594 376.292969 283.761719 376.328125 284.183594 C 378.144531 306.238281 379.316406 307.410156 401.371094 309.226562 C 401.792969 309.261719 402.121094 309.617188 402.121094 310.042969 C 402.121094 310.46875 401.792969 310.824219 401.371094 310.859375 C 379.316406 312.675781 378.144531 313.847656 376.328125 335.902344 C 376.292969 336.324219 375.9375 336.652344 375.511719 336.652344 Z M 375.511719 336.652344 " fill-opacity="1" fill-rule="nonzero"/></g><g transform="matrix(1, 0, 0, 1, 62, 78)"><g clip-path="url(#d1733d1183)"><g fill="#000000" fill-opacity="1"><g transform="translate(0.239481, 258.610815)"><g><path d="M 223.40625 -158.53125 C 241.019531 -158.53125 254.226562 -153.488281 263.03125 -143.40625 C 271.84375 -133.332031 276.25 -119 276.25 -100.40625 L 276.25 0 L 217.828125 0 L 217.828125 -93.359375 C 217.828125 -100.015625 216.210938 -105.347656 212.984375 -109.359375 C 209.753906 -113.367188 205.207031 -115.375 199.34375 -115.375 C 192.488281 -115.375 186.90625 -113.023438 182.59375 -108.328125 C 178.289062 -103.628906 176.140625 -97.859375 176.140625 -91.015625 L 176.140625 0 L 117.71875 0 L 117.71875 -93.359375 C 117.71875 -100.015625 116.101562 -105.347656 112.875 -109.359375 C 109.644531 -113.367188 105.097656 -115.375 99.234375 -115.375 C 92.378906 -115.375 86.796875 -113.023438 82.484375 -108.328125 C 78.179688 -103.628906 76.03125 -97.859375 76.03125 -91.015625 L 76.03125 0 L 17.609375 0 L 17.609375 -155.015625 L 65.46875 -155.015625 L 69.28125 -131.8125 C 75.15625 -140.03125 82.9375 -146.535156 92.625 -151.328125 C 102.3125 -156.128906 112.535156 -158.53125 123.296875 -158.53125 C 146.585938 -158.53125 162.25 -149.625 170.28125 -131.8125 C 176.34375 -140.03125 184.117188 -146.535156 193.609375 -151.328125 C 203.109375 -156.128906 213.039062 -158.53125 223.40625 -158.53125 Z M 223.40625 -158.53125 "/></g></g></g></g></g></svg>