<svg xmlns="http://www.w3.org/2000/svg" xmlns:xlink="http://www.w3.org/1999/xlink" width="552" zoomAndPan="magnify" viewBox="0 0 414 139.500001" height="186" preserveAspectRatio="xMidYMid meet" version="1.0"><defs><g/><clipPath id="0d2e6fc7b5"><path d="M 181.785156 0 L 231.855469 0 L 231.855469 50.070312 L 181.785156 50.070312 Z M 181.785156 0 " clip-rule="nonzero"/></clipPath><clipPath id="8f7fe25fcd"><path d="M 162 21 L 216 21 L 216 89.660156 L 162 89.660156 Z M 162 21 " clip-rule="nonzero"/></clipPath><clipPath id="864ffe7ee2"><rect x="0" width="352" y="0" height="90"/></clipPath></defs><g clip-path="url(#0d2e6fc7b5)"><path fill="#1d1d1b" d="M 206.820312 50.070312 C 206.417969 50.070312 206.085938 49.765625 206.050781 49.363281 C 204.339844 28.613281 203.238281 27.511719 182.488281 25.800781 C 182.089844 25.769531 181.785156 25.4375 181.785156 25.035156 C 181.785156 24.636719 182.089844 24.300781 182.488281 24.269531 C 203.238281 22.554688 204.339844 21.457031 206.050781 0.707031 C 206.085938 0.308594 206.417969 0 206.820312 0 C 207.21875 0 207.554688 0.308594 207.585938 0.707031 C 209.296875 21.457031 210.398438 22.554688 231.148438 24.269531 C 231.546875 24.300781 231.855469 24.636719 231.855469 25.035156 C 231.855469 25.4375 231.546875 25.769531 231.148438 25.800781 C 210.398438 27.511719 209.296875 28.613281 207.585938 49.363281 C 207.554688 49.761719 207.21875 50.070312 206.820312 50.070312 Z M 206.820312 50.070312 " fill-opacity="1" fill-rule="nonzero"/></g><g transform="matrix(1, 0, 0, 1, 31, 28)"><g clip-path="url(#864ffe7ee2)"><g fill="#000000" fill-opacity="1"><g transform="translate(1.428466, 72.165327)"><g><path d="M 61.265625 -43.46875 C 66.085938 -43.46875 69.707031 -42.082031 72.125 -39.3125 C 74.539062 -36.550781 75.75 -32.625 75.75 -27.53125 L 75.75 0 L 59.734375 0 L 59.734375 -25.59375 C 59.734375 -27.425781 59.289062 -28.890625 58.40625 -29.984375 C 57.519531 -31.085938 56.269531 -31.640625 54.65625 -31.640625 C 52.78125 -31.640625 51.25 -30.992188 50.0625 -29.703125 C 48.882812 -28.410156 48.296875 -26.828125 48.296875 -24.953125 L 48.296875 0 L 32.28125 0 L 32.28125 -25.59375 C 32.28125 -27.425781 31.835938 -28.890625 30.953125 -29.984375 C 30.066406 -31.085938 28.816406 -31.640625 27.203125 -31.640625 C 25.328125 -31.640625 23.796875 -30.992188 22.609375 -29.703125 C 21.429688 -28.410156 20.84375 -26.828125 20.84375 -24.953125 L 20.84375 0 L 4.828125 0 L 4.828125 -42.5 L 17.953125 -42.5 L 19 -36.140625 C 20.601562 -38.398438 22.734375 -40.1875 25.390625 -41.5 C 28.046875 -42.8125 30.851562 -43.46875 33.8125 -43.46875 C 40.195312 -43.46875 44.488281 -41.023438 46.6875 -36.140625 C 48.351562 -38.398438 50.488281 -40.1875 53.09375 -41.5 C 55.695312 -42.8125 58.421875 -43.46875 61.265625 -43.46875 Z M 61.265625 -43.46875 "/></g></g></g><g fill="#000000" fill-opacity="1"><g transform="translate(81.915425, 72.165327)"><g><path d="M 5.390625 -47.5 L 5.390625 -58.359375 L 21.40625 -58.359375 L 21.40625 -47.5 Z M 5.390625 0 L 5.390625 -42.5 L 21.40625 -42.5 L 21.40625 0 Z M 5.390625 0 "/></g></g></g><g fill="#000000" fill-opacity="1"><g transform="translate(108.71759, 72.165327)"><g><path d="M 34.125 -43.46875 C 39.0625 -43.46875 42.765625 -42.097656 45.234375 -39.359375 C 47.703125 -36.628906 48.9375 -32.6875 48.9375 -27.53125 L 48.9375 0 L 32.921875 0 L 32.921875 -25.59375 C 32.921875 -27.425781 32.453125 -28.890625 31.515625 -29.984375 C 30.578125 -31.085938 29.25 -31.640625 27.53125 -31.640625 C 25.539062 -31.640625 23.925781 -30.992188 22.6875 -29.703125 C 21.457031 -28.410156 20.84375 -26.828125 20.84375 -24.953125 L 20.84375 0 L 4.828125 0 L 4.828125 -42.5 L 17.953125 -42.5 L 19 -36.0625 C 20.664062 -38.3125 22.851562 -40.109375 25.5625 -41.453125 C 28.269531 -42.796875 31.125 -43.46875 34.125 -43.46875 Z M 34.125 -43.46875 "/></g></g></g><g clip-path="url(#8f7fe25fcd)"><g fill="#000000" fill-opacity="1"><g transform="translate(162.402384, 72.165327)"><g><path d="M 52.640625 -50.46875 C 52.640625 -47.195312 51.820312 -44.675781 50.1875 -42.90625 C 48.550781 -41.132812 46.097656 -39.820312 42.828125 -38.96875 C 44.378906 -37.78125 45.597656 -36.394531 46.484375 -34.8125 C 47.367188 -33.226562 47.8125 -31.550781 47.8125 -29.78125 C 47.8125 -25.269531 46.109375 -21.859375 42.703125 -19.546875 C 39.296875 -17.242188 35.046875 -16.09375 29.953125 -16.09375 L 23.828125 -16.09375 C 20.441406 -16.09375 18.75 -15.316406 18.75 -13.765625 C 18.75 -13.015625 19.125 -12.410156 19.875 -11.953125 C 20.632812 -11.492188 21.953125 -11.265625 23.828125 -11.265625 L 38.3125 -11.265625 C 43.039062 -11.265625 46.609375 -10.03125 49.015625 -7.5625 C 51.429688 -5.09375 52.640625 -1.796875 52.640625 2.328125 C 52.640625 5.390625 51.832031 8.019531 50.21875 10.21875 C 48.613281 12.425781 46.441406 14.09375 43.703125 15.21875 C 40.972656 16.34375 38 16.90625 34.78125 16.90625 L 11.109375 16.90625 C 9.179688 16.90625 7.394531 16.445312 5.75 15.53125 C 4.113281 14.625 2.8125 13.378906 1.84375 11.796875 C 0.882812 10.210938 0.40625 8.453125 0.40625 6.515625 C 0.40625 4.421875 1.046875 2.53125 2.328125 0.84375 C 3.617188 -0.84375 5.234375 -2.117188 7.171875 -2.984375 C 5.878906 -3.890625 4.859375 -4.988281 4.109375 -6.28125 C 3.359375 -7.570312 2.984375 -8.96875 2.984375 -10.46875 C 2.984375 -12.5625 3.757812 -14.453125 5.3125 -16.140625 C 6.863281 -17.828125 8.796875 -18.96875 11.109375 -19.5625 C 9.015625 -20.90625 7.347656 -22.445312 6.109375 -24.1875 C 4.878906 -25.9375 4.265625 -27.773438 4.265625 -29.703125 C 4.265625 -34.640625 6.265625 -38.164062 10.265625 -40.28125 C 14.265625 -42.40625 19.5625 -43.46875 26.15625 -43.46875 C 29.0625 -43.46875 31.398438 -43.304688 33.171875 -42.984375 C 35.796875 -44.648438 37.492188 -46.164062 38.265625 -47.53125 C 39.046875 -48.90625 39.4375 -49.882812 39.4375 -50.46875 Z M 26 -35.09375 C 24.226562 -35.09375 22.78125 -34.632812 21.65625 -33.71875 C 20.53125 -32.8125 19.96875 -31.5 19.96875 -29.78125 C 19.96875 -28.007812 20.488281 -26.679688 21.53125 -25.796875 C 22.582031 -24.910156 24.070312 -24.46875 26 -24.46875 C 27.9375 -24.46875 29.453125 -24.910156 30.546875 -25.796875 C 31.648438 -26.679688 32.203125 -28.007812 32.203125 -29.78125 C 32.203125 -31.550781 31.648438 -32.878906 30.546875 -33.765625 C 29.453125 -34.648438 27.9375 -35.09375 26 -35.09375 Z M 19.796875 0 C 18.566406 0 17.5625 0.332031 16.78125 1 C 16 1.675781 15.609375 2.628906 15.609375 3.859375 C 15.609375 5.097656 16.007812 6.09375 16.8125 6.84375 C 17.625 7.59375 18.617188 7.96875 19.796875 7.96875 L 32.359375 7.96875 C 33.535156 7.96875 34.539062 7.601562 35.375 6.875 C 36.207031 6.15625 36.625 5.175781 36.625 3.9375 C 36.625 2.707031 36.222656 1.742188 35.421875 1.046875 C 34.617188 0.347656 33.597656 0 32.359375 0 Z M 19.796875 0 "/></g></g></g></g><g fill="#000000" fill-opacity="1"><g transform="translate(216.087177, 72.165327)"><g><path d="M 5.390625 -47.5 L 5.390625 -58.359375 L 21.40625 -58.359375 L 21.40625 -47.5 Z M 5.390625 0 L 5.390625 -42.5 L 21.40625 -42.5 L 21.40625 0 Z M 5.390625 0 "/></g></g></g><g fill="#000000" fill-opacity="1"><g transform="translate(242.889342, 72.165327)"><g><path d="M 34.125 -43.46875 C 39.0625 -43.46875 42.765625 -42.097656 45.234375 -39.359375 C 47.703125 -36.628906 48.9375 -32.6875 48.9375 -27.53125 L 48.9375 0 L 32.921875 0 L 32.921875 -25.59375 C 32.921875 -27.425781 32.453125 -28.890625 31.515625 -29.984375 C 30.578125 -31.085938 29.25 -31.640625 27.53125 -31.640625 C 25.539062 -31.640625 23.925781 -30.992188 22.6875 -29.703125 C 21.457031 -28.410156 20.84375 -26.828125 20.84375 -24.953125 L 20.84375 0 L 4.828125 0 L 4.828125 -42.5 L 17.953125 -42.5 L 19 -36.0625 C 20.664062 -38.3125 22.851562 -40.109375 25.5625 -41.453125 C 28.269531 -42.796875 31.125 -43.46875 34.125 -43.46875 Z M 34.125 -43.46875 "/></g></g></g><g fill="#000000" fill-opacity="1"><g transform="translate(296.574136, 72.165327)"><g><path d="M 25.84375 -43.46875 C 32.332031 -43.46875 37.613281 -42.378906 41.6875 -40.203125 C 45.769531 -38.035156 47.8125 -34.507812 47.8125 -29.625 L 47.8125 -13.046875 C 47.8125 -12.128906 48.023438 -11.375 48.453125 -10.78125 C 48.890625 -10.195312 49.535156 -9.90625 50.390625 -9.90625 L 53.296875 -9.90625 L 53.296875 -0.640625 C 53.128906 -0.535156 52.707031 -0.363281 52.03125 -0.125 C 51.363281 0.113281 50.410156 0.351562 49.171875 0.59375 C 47.941406 0.84375 46.523438 0.96875 44.921875 0.96875 C 41.804688 0.96875 39.242188 0.5 37.234375 -0.4375 C 35.222656 -1.375 33.835938 -2.675781 33.078125 -4.34375 C 31.046875 -2.738281 28.765625 -1.453125 26.234375 -0.484375 C 23.710938 0.484375 20.765625 0.96875 17.390625 0.96875 C 7.410156 0.96875 2.421875 -3.003906 2.421875 -10.953125 C 2.421875 -15.078125 3.53125 -18.226562 5.75 -20.40625 C 7.976562 -22.582031 11.1875 -24.070312 15.375 -24.875 C 19.5625 -25.675781 25.035156 -26.078125 31.796875 -26.078125 L 31.796875 -28.171875 C 31.796875 -29.835938 31.21875 -31.097656 30.0625 -31.953125 C 28.914062 -32.816406 27.425781 -33.25 25.59375 -33.25 C 23.9375 -33.25 22.503906 -32.953125 21.296875 -32.359375 C 20.085938 -31.765625 19.484375 -30.828125 19.484375 -29.546875 L 19.484375 -29.21875 L 3.703125 -29.21875 C 3.648438 -29.488281 3.625 -29.863281 3.625 -30.34375 C 3.625 -34.375 5.539062 -37.566406 9.375 -39.921875 C 13.21875 -42.285156 18.707031 -43.46875 25.84375 -43.46875 Z M 31.796875 -18.515625 C 27.234375 -18.515625 23.863281 -18.015625 21.6875 -17.015625 C 19.519531 -16.023438 18.4375 -14.703125 18.4375 -13.046875 C 18.4375 -10.359375 20.257812 -9.015625 23.90625 -9.015625 C 26 -9.015625 27.835938 -9.578125 29.421875 -10.703125 C 31.003906 -11.828125 31.796875 -13.222656 31.796875 -14.890625 Z M 31.796875 -18.515625 "/></g></g></g></g></g></svg>